<mxfile host="app.diagrams.net" modified="2020-11-20T05:13:31.601Z" agent="5.0 (Windows NT 10.0; Win64; x64) AppleWebKit/537.36 (KHTML, like Gecko) Chrome/86.0.4240.183 Safari/537.36" etag="BD6ki7K9bem2B1VATUb3" version="13.10.0" type="github">
  <diagram id="DLaAfY6MLrWqdHofX1Y0" name="Page-1">
    <mxGraphModel dx="1038" dy="491" grid="1" gridSize="10" guides="1" tooltips="1" connect="1" arrows="1" fold="1" page="1" pageScale="1" pageWidth="850" pageHeight="1100" math="0" shadow="0">
      <root>
        <mxCell id="0" />
        <mxCell id="1" parent="0" />
        <mxCell id="zKwDwM1E7vwW45lTwtcs-1" value="" style="html=1;verticalLabelPosition=bottom;align=center;labelBackgroundColor=#ffffff;verticalAlign=top;strokeWidth=2;strokeColor=#0080F0;shadow=0;dashed=0;shape=mxgraph.ios7.icons.cloud;" vertex="1" parent="1">
          <mxGeometry x="480" y="50" width="140" height="90" as="geometry" />
        </mxCell>
        <mxCell id="zKwDwM1E7vwW45lTwtcs-2" value="" style="html=1;verticalLabelPosition=bottom;align=center;labelBackgroundColor=#ffffff;verticalAlign=top;strokeWidth=2;strokeColor=#0080F0;shadow=0;dashed=0;shape=mxgraph.ios7.icons.cloud;" vertex="1" parent="1">
          <mxGeometry x="480" y="160" width="140" height="90" as="geometry" />
        </mxCell>
        <mxCell id="zKwDwM1E7vwW45lTwtcs-3" value="" style="html=1;verticalLabelPosition=bottom;align=center;labelBackgroundColor=#ffffff;verticalAlign=top;strokeWidth=2;strokeColor=#0080F0;shadow=0;dashed=0;shape=mxgraph.ios7.icons.cloud;" vertex="1" parent="1">
          <mxGeometry x="480" y="270" width="140" height="90" as="geometry" />
        </mxCell>
        <mxCell id="zKwDwM1E7vwW45lTwtcs-4" value="&lt;b&gt;Authentication&lt;/b&gt;" style="text;html=1;strokeColor=none;fillColor=none;align=center;verticalAlign=middle;whiteSpace=wrap;rounded=0;fontColor=#007FFF;" vertex="1" parent="1">
          <mxGeometry x="510" y="100" width="80" height="20" as="geometry" />
        </mxCell>
        <mxCell id="zKwDwM1E7vwW45lTwtcs-5" value="&lt;b&gt;Cloud Functions&lt;/b&gt;" style="text;html=1;strokeColor=none;fillColor=none;align=center;verticalAlign=middle;whiteSpace=wrap;rounded=0;fontColor=#007FFF;" vertex="1" parent="1">
          <mxGeometry x="510" y="210" width="97" height="20" as="geometry" />
        </mxCell>
        <mxCell id="zKwDwM1E7vwW45lTwtcs-6" value="&lt;b&gt;Cloud Database&lt;/b&gt;" style="text;html=1;strokeColor=none;fillColor=none;align=center;verticalAlign=middle;whiteSpace=wrap;rounded=0;fontColor=#007FFF;" vertex="1" parent="1">
          <mxGeometry x="503" y="320" width="100" height="20" as="geometry" />
        </mxCell>
      </root>
    </mxGraphModel>
  </diagram>
</mxfile>
